<svg id="elements" xmlns="http://www.w3.org/2000/svg" xmlns:xlink="http://www.w3.org/1999/xlink" viewBox="0 0 1006.27 676.12"><defs><style>.cls-1,.cls-3,.cls-4{fill:none;}.cls-2{clip-path:url(#clip-path);}.cls-3{stroke:#c04233;stroke-width:2.4px;}.cls-4{stroke:#f7ecc8;stroke-width:3.6px;}.cls-5{fill:#a2d6f4;}.cls-6{fill:#cae8f8;}.cls-7{fill:#fefffb;}.cls-10,.cls-8,.cls-9{fill:#dff1ff;}.cls-9{opacity:0.8;}.cls-10{opacity:0.7;}.cls-11{fill:url(#linear-gradient);}.cls-12{fill:#9d3c18;}.cls-13{fill:url(#linear-gradient-2);}.cls-14{fill:url(#linear-gradient-3);}.cls-15{fill:url(#linear-gradient-4);}.cls-16{fill:url(#linear-gradient-5);}.cls-17{fill:#643e19;}.cls-18{fill:#724e27;}.cls-19{opacity:0.4;}.cls-20{fill:#503201;}.cls-21{fill:#576f14;}.cls-22{fill:#5c7e02;}.cls-23{fill:#698618;}.cls-24{fill:url(#linear-gradient-6);}.cls-25{fill:url(#linear-gradient-7);}.cls-26{fill:url(#linear-gradient-8);}.cls-27{fill:url(#linear-gradient-9);}.cls-28{fill:#e4c89f;}.cls-29{fill:#a84036;}.cls-30{fill:#caa180;}.cls-31{fill:#f7f5e0;}.cls-32{fill:url(#_30_6_lpp);}.cls-33{fill:#9c2f2b;}.cls-34{fill:url(#_20_6_lpp);}.cls-35{fill:#c3916a;}.cls-36{fill:#e4ceae;}.cls-37{fill:#bf8e66;}.cls-38{fill:#eadac3;}.cls-39{fill:#dab89c;}.cls-40{fill:#fdfcef;}.cls-41{fill:url(#_30_6_lpp-3);}.cls-42{fill:#9c2e2b;}.cls-43{fill:#c67054;}.cls-44{fill:#98422a;}.cls-45{fill:#b6663b;}.cls-46{fill:#b13a30;}.cls-47{fill:#b76a5f;}.cls-48{fill:#aed4f8;}.cls-49{fill:#932820;}.cls-50{fill:#ddc8af;}.cls-51{fill:#fefff7;}.cls-52{fill:#b5675b;}.cls-53{fill:#d9eafb;}.cls-54{fill:url(#_30_6_lpp-7);}.cls-55{fill:#b66557;}.cls-56{fill:#deeaf2;}.cls-57{fill:#b96b60;}.cls-58{fill:url(#linear-gradient-10);}.cls-59{fill:url(#linear-gradient-11);}.cls-60{fill:url(#linear-gradient-12);}.cls-61{fill:url(#linear-gradient-13);}.cls-62{fill:url(#linear-gradient-14);}.cls-63{fill:url(#linear-gradient-15);}.cls-64{fill:#93a032;}.cls-65{fill:#b5b219;}.cls-66{fill:#e9d34d;}.cls-67{fill:#fbcb41;}</style><clipPath id="clip-path"><rect class="cls-1" width="72" height="72"/></clipPath><linearGradient id="linear-gradient" x1="844.89" y1="497.82" x2="844.89" y2="612.36" gradientUnits="userSpaceOnUse"><stop offset="0" stop-color="#fcc840"/><stop offset="1" stop-color="#faa031"/></linearGradient><linearGradient id="linear-gradient-2" x1="1006.7" y1="416.7" x2="1006.7" y2="550.2" gradientTransform="matrix(1, 0.07, -0.07, 1, 5.15, -34.08)" gradientUnits="userSpaceOnUse"><stop offset="0" stop-color="#fcbc36"/><stop offset="0.13" stop-color="#fbb533"/><stop offset="0.31" stop-color="#f9a32b"/><stop offset="0.4" stop-color="#f79625"/><stop offset="0.55" stop-color="#ee8926"/><stop offset="0.75" stop-color="#de6f29"/></linearGradient><linearGradient id="linear-gradient-3" x1="920.43" y1="477.87" x2="920.43" y2="611.82" gradientTransform="matrix(0.89, -0.04, 0.04, 1, 43.86, 11.54)" xlink:href="#linear-gradient-2"/><linearGradient id="linear-gradient-4" x1="960.94" y1="508.27" x2="960.94" y2="617.45" gradientTransform="matrix(0.89, -0.03, 0.04, 1, 44.38, 10.1)" xlink:href="#linear-gradient-2"/><linearGradient id="linear-gradient-5" x1="1018.43" y1="472.07" x2="1018.43" y2="578.75" gradientTransform="matrix(0.89, 0.02, -0.03, 1, 49.26, -14.47)" xlink:href="#linear-gradient-2"/><linearGradient id="linear-gradient-6" x1="440.27" y1="392.91" x2="440.27" y2="578.24" xlink:href="#linear-gradient-2"/><linearGradient id="linear-gradient-7" x1="249.12" y1="394.77" x2="249.12" y2="580.72" gradientTransform="matrix(0.89, -0.04, 0.04, 1, 43.86, 11.54)" xlink:href="#linear-gradient-2"/><linearGradient id="linear-gradient-8" x1="304.29" y1="440.65" x2="304.29" y2="592.23" gradientTransform="matrix(0.89, -0.03, 0.04, 1, 44.38, 10.1)" xlink:href="#linear-gradient-2"/><linearGradient id="linear-gradient-9" x1="369.29" y1="439.06" x2="369.29" y2="587.15" gradientTransform="matrix(0.89, 0.02, -0.03, 1, 49.26, -14.47)" xlink:href="#linear-gradient-2"/><pattern id="_30_6_lpp" data-name="30 % 6 lpp" width="72" height="72" patternUnits="userSpaceOnUse" viewBox="0 0 72 72"><rect class="cls-1" width="72" height="72"/><g class="cls-2"><line class="cls-4" x1="-0.25" y1="66" x2="72.25" y2="66"/><line class="cls-4" x1="-0.25" y1="42" x2="72.25" y2="42"/><line class="cls-4" x1="-0.25" y1="18" x2="72.25" y2="18"/><line class="cls-4" x1="-24" y1="18" x2="-7.5" y2="18"/><line class="cls-4" x1="-0.25" y1="54" x2="72.25" y2="54"/><line class="cls-4" x1="-0.25" y1="30" x2="72.25" y2="30"/><line class="cls-4" x1="-0.25" y1="6" x2="72.25" y2="6"/><line class="cls-4" x1="-24" y1="6" x2="-7.5" y2="6"/></g></pattern><pattern id="_20_6_lpp" data-name="20 % 6 lpp" width="72" height="72" patternUnits="userSpaceOnUse" viewBox="0 0 72 72"><rect class="cls-1" width="72" height="72"/><g class="cls-2"><line class="cls-3" x1="-0.25" y1="66" x2="72.25" y2="66"/><line class="cls-3" x1="-0.25" y1="42" x2="72.25" y2="42"/><line class="cls-3" x1="-0.25" y1="18" x2="72.25" y2="18"/><line class="cls-3" x1="-24" y1="18" x2="-7.5" y2="18"/><line class="cls-3" x1="-0.25" y1="54" x2="72.25" y2="54"/><line class="cls-3" x1="-0.25" y1="30" x2="72.25" y2="30"/><line class="cls-3" x1="-0.25" y1="6" x2="72.25" y2="6"/><line class="cls-3" x1="-24" y1="6" x2="-7.5" y2="6"/></g></pattern><pattern id="_30_6_lpp-3" data-name="30 % 6 lpp" width="72" height="72" patternTransform="translate(0 50.79) scale(1 0.89)" patternUnits="userSpaceOnUse" viewBox="0 0 72 72"><rect class="cls-1" width="72" height="72"/><g class="cls-2"><line class="cls-4" x1="-0.25" y1="66" x2="72.25" y2="66"/><line class="cls-4" x1="-0.25" y1="42" x2="72.25" y2="42"/><line class="cls-4" x1="-0.25" y1="18" x2="72.25" y2="18"/><line class="cls-4" x1="-24" y1="18" x2="-7.5" y2="18"/><line class="cls-4" x1="-0.25" y1="54" x2="72.25" y2="54"/><line class="cls-4" x1="-0.25" y1="30" x2="72.25" y2="30"/><line class="cls-4" x1="-0.25" y1="6" x2="72.25" y2="6"/><line class="cls-4" x1="-24" y1="6" x2="-7.5" y2="6"/></g></pattern><pattern id="_30_6_lpp-7" data-name="30 % 6 lpp" width="72" height="72" patternTransform="translate(-366.44 -156.53) scale(2.13 1.68)" patternUnits="userSpaceOnUse" viewBox="0 0 72 72"><rect class="cls-1" width="72" height="72"/><g class="cls-2"><line class="cls-4" x1="-0.25" y1="66" x2="72.25" y2="66"/><line class="cls-4" x1="-0.25" y1="42" x2="72.25" y2="42"/><line class="cls-4" x1="-0.25" y1="18" x2="72.25" y2="18"/><line class="cls-4" x1="-24" y1="18" x2="-7.5" y2="18"/><line class="cls-4" x1="-0.25" y1="54" x2="72.25" y2="54"/><line class="cls-4" x1="-0.25" y1="30" x2="72.25" y2="30"/><line class="cls-4" x1="-0.25" y1="6" x2="72.25" y2="6"/><line class="cls-4" x1="-24" y1="6" x2="-7.5" y2="6"/></g></pattern><linearGradient id="linear-gradient-10" x1="3.37" y1="601.23" x2="619.58" y2="601.23" gradientTransform="matrix(1, -0.07, 0.07, 1, -37.8, 21.55)" gradientUnits="userSpaceOnUse"><stop offset="0" stop-color="#c45736"/><stop offset="0.33" stop-color="#cd7e37"/><stop offset="0.69" stop-color="#db9c4f"/><stop offset="1" stop-color="#f6d981"/></linearGradient><linearGradient id="linear-gradient-11" x1="225.97" y1="386.21" x2="225.97" y2="613.38" xlink:href="#linear-gradient-2"/><linearGradient id="linear-gradient-12" x1="-23.5" y1="366.11" x2="-23.5" y2="594.04" gradientTransform="matrix(0.89, -0.04, 0.04, 1, 43.86, 11.54)" xlink:href="#linear-gradient-2"/><linearGradient id="linear-gradient-13" x1="43.68" y1="423.38" x2="43.68" y2="609.18" gradientTransform="matrix(0.89, -0.03, 0.04, 1, 44.38, 10.1)" xlink:href="#linear-gradient-2"/><linearGradient id="linear-gradient-14" x1="116.84" y1="434.55" x2="116.84" y2="616.08" gradientTransform="matrix(0.89, 0.02, -0.03, 1, 49.26, -14.47)" xlink:href="#linear-gradient-2"/><linearGradient id="linear-gradient-15" x1="535.45" y1="593.73" x2="535.45" y2="676.12" gradientUnits="userSpaceOnUse"><stop offset="0" stop-color="#cbc726"/><stop offset="0.21" stop-color="#c7c425"/><stop offset="0.43" stop-color="#baba22"/><stop offset="0.66" stop-color="#a6ab1d"/><stop offset="0.7" stop-color="#a1a71c"/></linearGradient></defs><rect class="cls-5" width="1000" height="676.12"/><path class="cls-6" d="M0,183.3s24.35,2,31,12.61c0,0-6-27.23,27.89-25.23,0,0,19.93,4.54,25.24,12.56,0,0,10.63-3.93,18.6-18.54,0,0,16.6-18.6,48.48-.66,0,0,24.57,27.22,27.89,31.87,0,0,18.6-31.87,88.33-10,0,0,27.23-68.41,89-39.85,0,0,47.82-78.37,87-49.14,0,0,12.62-37.2,45.83-37.86,0,0,26.57,2.66,38.52,22.58,0,0,29.89-14.61,54.46,33.87,0,0,23.24-19.92,64.42,38.52l50.48,2.66V144.11s21.25-43.83,59.77-28.56c0,0,23.24-27.23,51.14-21.25,0,0,23.24,4.65,29.88,33.21,0,0,37.19-8,49.15,10.62,0,0,22.58,24.58,32.54,26.57,0,0,56.51-19.26,80.39,18.6V363.7H0Z" transform="translate(0)"/><path class="cls-7" d="M0,231.07s21.49-8.86,53,23.31c0,0,16.74-12.15,32.5,5.91,0,0,4.27,1.64,11.82-9.52,0,0,5.25-23.64,13.13-27.91,0,0,15.1-13.79,42.68,13.79,0,0,4.92-13.87,24,3.24,0,0-9.52-25.89,17.07-52.48,0,0,22.33-23.64,34.47-5.26,0,0,5.26,11.17,6.57,17.08,0,0,9.85-20,26.26-.66,0,0,7.23,8.21,4.27,17.07,0,0,34.8-14.12,53.51,17.4,0,0,8.54-3.28,10.18-19.37,0,0,2-7.55,9.85-6.24,0,0-11.49-13.46,8.21-37.42,0,0,15.1-16.42,32.17-6.57,0,0,14.44-20,30.86-12.47a16.34,16.34,0,0,1,10.17,15.43s31.52,6.56,41.37,34.14c0,0,34.8-39.72,52.85-16.42,0,0,25.94-59.21,60.08-34.85,0,0,1.31-13.08,26.26-20,0,0,20.35-11.16,21-13.79,0,0,26.27-11.49,46.29,33.16,0,0,34.47-23.64,57.78,5.25,0,0,14.77,18.06,17.4,25.28,0,0,15.1-.66,44,26.59,0,0,11.16-35.13,52.53-23.31,0,0,31.18,12.81,50.55,38.41,0,0,25.28-18,49.57,10.18,0,0,29,32.34,59.64,29.3V550.12L0,563.12Z" transform="translate(0)"/><polygon class="cls-8" points="110.38 330.9 121.88 330.9 121.88 128.68 128.69 128.68 128.69 117.39 133.38 117.39 133.38 94.8 145.73 94.8 145.73 117.39 152.97 117.39 152.97 128.68 162.61 128.68 162.61 328.21 181.09 327.67 181.09 168.75 201.53 168.48 201.53 153.42 210.9 153.96 210.9 141.05 228.79 139.98 228.79 152.88 236.03 153.42 236.03 167.4 247.96 167.94 247.96 376.8 290.12 376.8 290.12 449.22 300.77 449.22 300.77 101.79 385.96 101.25 385.96 447.06 397.88 446.54 397.88 185.69 432.38 228.18 432.38 449.22 588.7 449.22 588.7 481.49 110.38 481.49 110.38 330.9"/><polygon class="cls-8" points="637.21 481.49 637.21 463.54 733.5 463.54 733.5 326.82 753.73 300.32 753.73 461.18 760.85 461.65 760.85 248.28 814.43 248.28 814.43 461.65 821.17 462.12 821.17 418.12 847.03 418.6 847.03 288.5 853.77 288.5 853.77 280.45 859.02 279.51 859.02 272.41 869.51 272.41 869.51 279.98 875.88 280.45 875.88 288.97 888.24 289.44 888.24 387.85 900.61 388.79 900.61 264.37 904.92 263.68 904.92 256.84 909.63 256.24 909.63 243.7 917.88 243.7 917.88 257.34 920.63 257.58 920.63 264.77 924.94 264.77 924.94 388.94 932.21 388.94 932.21 481.49 637.21 481.49"/><path class="cls-9" d="M323.1,463.92H239.56l-.35-88.42-3.12.44V353.61l-3.12-.44-.35-31.95h-1.73V302.83H219.1l.35,18.42h-2.08L217,352.73l-5.54.44v25h-2.43l.35,76.15-5.2-.87-.35-63.91-9-.44v6.13l-8-.44.35,8.76H166.06v-83.6h-26l.34,93.16H84.25l-.34,7.07H82.17l0,4.49L70.52,424v4.48l-5.59.64v5.13l-3.55.64c-1.52-23.07-17.77-21.79-17.77-21.79-15.23,0-17.77,22.43-17.77,22.43H5.53v16.67H1.77v29.18H323.45Z" transform="translate(0)"/><polygon class="cls-10" points="20.08 457.01 110.38 457.01 110.38 341.92 121.88 341.92 125.71 336.54 125.71 322.56 128.27 322.56 128.27 344.07 133.38 344.61 133.38 481.37 20.08 481.37 20.08 457.01"/><polygon class="cls-9" points="194.35 481.84 194.35 468 245.9 468 245.9 396.76 251.18 396.76 251.18 282.99 256.45 282.99 256.45 275.81 258.89 275.81 258.89 263 265.38 263 265.38 275.81 269.44 275.3 269.44 282.47 274.72 282.99 274.72 395.74 285.68 395.74 285.68 305.02 297.04 305.02 297.04 296.82 302.9 296.82 302.9 288.14 312.47 288.14 312.47 295.29 316.53 295.8 316.53 305.52 323.45 305.02 323.45 422.9 346.15 423.92 346.15 463.9 353.87 463.9 353.87 266.58 401.76 267.1 401.76 464.41 408.25 463.9 408.25 316.3 427.33 339.87 427.33 464.41 516.63 464.92 516.63 481.84 194.35 481.84"/><polygon class="cls-9" points="360.13 481.37 360.13 465.63 415.63 465.63 415.63 387.26 422.7 387.26 422.7 264.34 426.79 264.34 426.79 255.72 429.91 255.72 429.91 242.14 437.83 242.14 437.83 256.08 441.8 256.43 441.8 263 447.17 263 447.17 387.24 459.34 387.24 459.34 288.14 471.8 288.14 471.8 278.59 477.46 278.59 477.46 270.37 489.06 270.37 489.06 277.88 493.59 278.59 493.59 288.14 500.25 288.14 500.25 418.33 525.86 417.97 525.86 461.93 533.5 461.57 533.5 246.79 586.71 246.79 586.71 461.57 593.78 461.57 593.78 300.04 614.73 325.77 614.73 463 634.82 463 634.82 481.49 360.13 481.37"/><polygon class="cls-10" points="608.12 481.84 608.12 469.9 620 469.9 620 386.23 632.8 370.07 632.8 468.75 637.83 469.33 637.83 336.61 670.27 336.61 670.27 469.9 674.39 469.9 674.39 443.94 690.84 442.78 690.84 361.81 694.97 362.22 694.97 356.39 697.91 356.57 697.91 351.99 704.89 351.99 704.89 356.75 708.38 356.93 708.38 362.92 716.21 363.28 716.21 424.31 723.61 424.31 723.61 347.05 727.1 347.22 727.1 343.16 729.62 342.81 729.62 334.52 734.23 334.52 734.23 342.46 736.74 342.99 736.74 347.05 738.98 346.87 738.98 424.13 743.17 424.66 743.17 481.84 608.12 481.84"/><polygon class="cls-9" points="681.08 481.84 681.08 471.06 736.09 471.06 736.09 394.34 747.74 379.42 747.74 471.48 751.85 471.06 751.85 349.56 781.9 349.56 781.9 471.48 786.01 471.27 786.01 446.18 800.29 445.77 800.29 372.78 804.23 372.57 804.23 367.18 806.86 367.6 806.86 362.83 812.94 363.03 812.94 368.01 816.55 367.8 816.55 373.19 823.77 373.4 823.77 428.97 830.67 429.18 830.67 359.1 835.76 359.51 835.76 346.86 840.2 346.86 840.2 354.74 841.84 354.95 841.84 359.1 844.14 359.51 844.14 429.59 848.57 429.39 848.57 481.84 681.08 481.84"/><path class="cls-9" d="M775.63,469.39h57.88l.24-61.25,2.16.31V393l2.16-.3.24-22.14h1.2V357.81h8.17l-.25,12.75h1.45l.24,21.82,3.84.3V410h1.68l-.24,52.75,3.6-.61.24-44.26,6.24-.31v4.25l5.53-.31-.24,6.07h14.64V369.64h18l-.23,64.53h38.9l.24,4.9h1.2l0,3.11,8.09-.45v3.11l3.87.45v3.55l2.46.44c1.06-16,12.31-15.1,12.31-15.1,10.55,0,12.31,15.55,12.31,15.55h14.07v11.54h2.61v39.15L775.39,489.06Z" transform="translate(0)"/><path class="cls-11" d="M1002.1,539.43s-1.56-16.68-9.26-3.21c0,0-5.13,8.22-6.42-1,0,0,2.57-19.12-9-6.8,0,0-7.06,10.85-6.42-4.14,0,0-3.21-14.35-7.7-4.08,0,0-3.85,14.12-8.34-6.42,0,0-2.57-13.7-10.91-5.56,0,0-5.78,3-7.06-7.92,0,0-3.21-4.07-7.7,8.56,0,0-2.57,8.8-5.78-9.18,0,0-9-7.94-11.55,9.18,0,0,1.93,14.17-5.77,7.3,0,0-6.42-4.31-5.78,6,0,0-1.93,16-3.85,5.14,0,0-8.34-6.42-8.34,4.49,0,0-3.85,12.19-5.78,3.85,0,0-4.49-8.34-8.34-2.57,0,0-7.7,2.57-6.42-9,0,0-1.93-8.34-7.06-1.93,0,0-12.19-11.55-12.19,3.85,0,0-9.63-10.91-9.63,6.42,0,0-2,2-6.11-2.38,0,0-3.11-2.59-6.47,4.41,0,0-2.59,3.1-4.41-4.67,0,0-6-9.58-10.36,2.33,0,0-3.36,15.29-5.69,4.15,0,0-4.92-3.89-7.26,7,0,0-7,15.28-6.73,0,0,0-4.66-3.62-6.47,5.18,0,0-2.59,15.54-6.22-.77,0,0-3.89-8.29-9.84-1,0,0-5.44,3.63-8-5.44,0,0-2.59-8.81-7.77,0,0,0-3.63,1.29-4.92-7.51,0,0-4.92-12.17-11.66-2.59,0,0-4.4,3.63-6.21-2.85,0,0-4.67-5.44-7.51,2.59,0,0-5.44,8.55-7-.26,0,0-1.81-5.44-6.73,3.37,0,0-4.15,8.8-7.77.52,0,0-8-5.18-12.18,18.13l-1.81,33.15,27.72,16.57L798,612.36,869.49,610h48.69l61.65.25,22.27.78Z" transform="translate(0)"/><path class="cls-12" d="M969.23,576.3s-3.3,18.32-6.46,27.49c0,0,2.8,8.09,15.81,2.75,0,0-5.45-6.87-5.09-30.94Z" transform="translate(0)"/><path class="cls-13" d="M999.57,552.24c-.55,15-14.91,30.92-25.92,30.18s-21.9-15.22-22.56-30.23C948.76,499.25,972,448.5,983,449.24,990.19,449.73,1002.44,474.76,999.57,552.24Z" transform="translate(0)"/><path class="cls-12" d="M885.11,584.23s-1.11,18.62-3,28.1c0,0,3.3,7.78,14.34,1.11,0,0-5.53-6.29-7.63-30.35Z" transform="translate(0)"/><path class="cls-14" d="M909.69,557.1c1,15-10.17,32.39-20,32.78s-21-12.92-23.1-27.84c-7.37-52.58,8.19-105.61,18.05-106C891.08,455.78,904.49,479.49,909.69,557.1Z" transform="translate(0)"/><path class="cls-12" d="M920,592.07s-1,15.18-2.55,22.89c0,0,2.67,6.36,11.69,1,0,0-4.49-5.15-6.1-24.77Z" transform="translate(0)"/><path class="cls-15" d="M940.18,570.05c.77,12.27-8.42,26.36-16.46,26.65S906.64,586.08,905,573.92c-5.81-42.89,7.07-86.07,15.11-86.35C925.39,487.38,936.22,506.76,940.18,570.05Z" transform="translate(0)"/><path class="cls-12" d="M939,584.18s-1.88,14.74-3.9,22.16c0,0,2.21,6.36,11.34,1.66,0,0-4.06-5.3-4.43-24.53Z" transform="translate(0)"/><path class="cls-16" d="M960,563.94c0,12-9.83,25.19-17.68,25s-16-11.4-16.87-23.37c-3-42.17,12.18-83.48,20-83.26C950.66,482.43,960,502,960,563.94Z" transform="translate(0)"/><path class="cls-17" d="M910.8,541.63s7.2,10.57,28.08,13.09l1.35,5.91a24.66,24.66,0,0,0-8.88-4.72c-4.84-1.19-18.72-8.2-21.74-14.2Z" transform="translate(0)"/><path class="cls-17" d="M913.77,539.67a11.75,11.75,0,0,0,2.55,7.93c2.95,3.35.21.1.12.11s-1.88-.89-1.88-.89S912.54,541.45,913.77,539.67Z" transform="translate(0)"/><path class="cls-18" d="M944.44,524.08s-4.34.88.83,35,.85,58.34.85,58.34l-22.47-1.61s12-20.3,12.2-41.22-15.23-42.16-17.66-57.23l6-.19s6.63,22.81,11.6,28.56c0,0-1.48-19.14,1.32-27.49S944.44,524.08,944.44,524.08Z" transform="translate(0)"/><g class="cls-19"><path class="cls-17" d="M942,526.56c-1.32,3.71.41,19.18,1.24,26.13S946.12,579,946.12,579s-2.38-16.58-9.68-24.24-15.6-31.55-15.6-31.55,2.24,0,5.25,0c2.34,7.2,6.41,18.71,9.74,22.56,0,0-1-12.65.16-21.87C939.7,524.36,942.48,525.19,942,526.56Z" transform="translate(0)"/></g><path class="cls-18" d="M978.84,555.31s-7.07,14.71-32.94,21.9l-.55,7.75a31.12,31.12,0,0,1,10.3-7.68c5.87-2.43,22.08-14,24.72-22.11Z" transform="translate(0)"/><path class="cls-18" d="M966.71,545.69s3.28,13.77-4.08,25.17-.58.35-.28.37,5.24-3.52,5.24-3.52S971.28,550.56,966.71,545.69Z" transform="translate(0)"/><path class="cls-20" d="M934.31,558.32a45,45,0,0,1,6.54,14.9c1.94,8.54,1,25.92-1,33.54s-.72-5.45-4.25-2.52-4.27,8.75-7.08,8.23C928.57,612.47,941.7,590.4,934.31,558.32Z" transform="translate(0)"/><path class="cls-21" d="M953.05,544.87a4.72,4.72,0,0,1-.12-1.35,4.22,4.22,0,0,1,4.49-3.9,4.12,4.12,0,0,1,1.1.23,8.2,8.2,0,0,1,5.36-3.53,5.65,5.65,0,0,1,0-1.24,5.07,5.07,0,0,1,5.43-4.7l.41,0a8.11,8.11,0,0,1,15.26,4h.22A4.19,4.19,0,0,1,989,538.7a5.88,5.88,0,0,1,2.1-.21,5.94,5.94,0,0,1,5.46,5,8.11,8.11,0,0,1-1.86,16.1,7.82,7.82,0,0,1-3.19-.9,6.75,6.75,0,0,1-10.1,3A15.66,15.66,0,0,1,963.26,557a8.21,8.21,0,0,1-4.4.92,8.11,8.11,0,0,1-5.81-13.08Z" transform="translate(0)"/><path class="cls-22" d="M953.9,544.85a3.23,3.23,0,0,1-.12-1.28,4.07,4.07,0,0,1,4.34-3.79,3.49,3.49,0,0,1,1.06.25,7.82,7.82,0,0,1,5.19-3.42,6.11,6.11,0,0,1-.08-1.21,5,5,0,0,1,5.25-4.55l.39.06a7.85,7.85,0,0,1,14.77,3.88,1,1,0,0,1,.2,0,4.08,4.08,0,0,1,3.77,4.16,5.15,5.15,0,0,1,2-.23,5.74,5.74,0,0,1,5.26,4.85,7.84,7.84,0,0,1-1.8,15.56,7.71,7.71,0,0,1-3.08-.87,6.51,6.51,0,0,1-9.75,2.94,15.1,15.1,0,0,1-17.57-4.57,7.83,7.83,0,0,1-9.84-11.76Z" transform="translate(0)"/><path class="cls-23" d="M955.74,543.93a3.62,3.62,0,0,1-.12-1.17,3.7,3.7,0,0,1,4-3.43,3.17,3.17,0,0,1,1,.21,7.08,7.08,0,0,1,4.71-3.11,4.44,4.44,0,0,1-.06-1.09,4.49,4.49,0,0,1,4.78-4.17c.13,0,.22.05.35.06a7.12,7.12,0,0,1,13.41,3.54h.13a3.7,3.7,0,0,1,3.49,3.78,5.14,5.14,0,0,1,1.85-.2,5.24,5.24,0,0,1,4.8,4.41,7.14,7.14,0,0,1-1.66,14.16,7.21,7.21,0,0,1-2.79-.81,6,6,0,0,1-6,3.73,5.63,5.63,0,0,1-2.92-1.06,13.34,13.34,0,0,1-6.16,1,13.79,13.79,0,0,1-9.83-5.16,7.16,7.16,0,0,1-10.47-6.8A7,7,0,0,1,955.74,543.93Z" transform="translate(0)"/><path class="cls-21" d="M879.81,482.13a10.18,10.18,0,0,1-.32-3.37A10.56,10.56,0,0,1,890.77,469a10.34,10.34,0,0,1,2.81.6A20.47,20.47,0,0,1,907,460.68a12.22,12.22,0,0,1-.17-3.1,12.75,12.75,0,0,1,13.64-11.84,6.91,6.91,0,0,1,1,.15A20.36,20.36,0,0,1,959.85,456h.54a10.56,10.56,0,0,1,9.79,10.77,14.66,14.66,0,0,1,5.24-.59,15,15,0,0,1,13.73,12.66,20.38,20.38,0,1,1-12.73,38.14,16.9,16.9,0,0,1-25.34,7.65,39.23,39.23,0,0,1-45.63-11.91,20.37,20.37,0,0,1-25.64-30.54Z" transform="translate(0)"/><path class="cls-22" d="M881.91,482.11a10.15,10.15,0,0,1,10.59-12.7,10,10,0,0,1,2.71.58,19.72,19.72,0,0,1,13-8.58,11.72,11.72,0,0,1-.18-3A12.35,12.35,0,0,1,921.23,447a6.8,6.8,0,0,1,1,.14,19.66,19.66,0,0,1,37,9.73l.54,0a10.18,10.18,0,0,1,9.45,10.38,14.71,14.71,0,0,1,5.07-.58,14.5,14.5,0,0,1,13.27,12.24,19.68,19.68,0,1,1-12.29,36.86,16.4,16.4,0,0,1-24.51,7.38,37.94,37.94,0,0,1-44.08-11.52,19.67,19.67,0,0,1-24.76-29.49Z" transform="translate(0)"/><path class="cls-23" d="M886.53,479.79a9,9,0,0,1-.28-3,9.3,9.3,0,0,1,9.92-8.61,9.06,9.06,0,0,1,2.45.52,18,18,0,0,1,11.83-7.8,11.38,11.38,0,0,1-.15-2.74,11.24,11.24,0,0,1,12-10.41c.28,0,.6.07.88.1a17.91,17.91,0,0,1,33.7,8.88,3.53,3.53,0,0,1,.46,0,9.26,9.26,0,0,1,8.61,9.46,12.89,12.89,0,0,1,4.62-.51,13.19,13.19,0,0,1,12.07,11.09,17.92,17.92,0,0,1-4.13,35.57,18.27,18.27,0,0,1-7.07-2,14.89,14.89,0,0,1-14.88,9.33,14.6,14.6,0,0,1-7.37-2.61A34.58,34.58,0,0,1,909,506.63a17.9,17.9,0,0,1-22.51-26.84Z" transform="translate(0)"/><path class="cls-22" d="M894.09,537a2.49,2.49,0,0,1-.07-.82,2.55,2.55,0,0,1,2.72-2.36,6.86,6.86,0,0,1,.68.12,5,5,0,0,1,3.25-2.14,3.64,3.64,0,0,1,0-.76,3.11,3.11,0,0,1,3.33-2.86l.23,0a4.93,4.93,0,0,1,9.28,2.43h.09A2.58,2.58,0,0,1,916,533.3a3.64,3.64,0,0,1,4.59,2.93,4.93,4.93,0,1,1-3.08,9.25,4.12,4.12,0,0,1-4.11,2.56,4.19,4.19,0,0,1-2-.71,9.31,9.31,0,0,1-4.28.68,9.55,9.55,0,0,1-6.79-3.56,4.86,4.86,0,0,1-2.66.56,4.93,4.93,0,0,1-4.58-5.28A4.65,4.65,0,0,1,894.09,537Z" transform="translate(0)"/><path class="cls-21" d="M894.59,537a2.29,2.29,0,0,1-.06-.79,2.46,2.46,0,0,1,2.63-2.3,2.14,2.14,0,0,1,.65.16A4.75,4.75,0,0,1,901,532a3.36,3.36,0,0,1,0-.72,3,3,0,0,1,3.17-2.79l.25,0a4.78,4.78,0,0,1,9,2.37h.11a2.46,2.46,0,0,1,2.3,2.52,3.11,3.11,0,0,1,1.22-.15,3.52,3.52,0,0,1,3.23,3,4.78,4.78,0,0,1-1.1,9.48,5.09,5.09,0,0,1-1.89-.54,4,4,0,0,1-4,2.48,3.87,3.87,0,0,1-1.94-.69,9.4,9.4,0,0,1-4.16.66,9.16,9.16,0,0,1-6.55-3.47,4.53,4.53,0,0,1-2.58.57,4.76,4.76,0,0,1-3.41-7.7Z" transform="translate(0)"/><path class="cls-23" d="M895.68,536.49a4.48,4.48,0,0,1,0-.73,2.27,2.27,0,0,1,2.42-2.09,1.76,1.76,0,0,1,.58.13,4.46,4.46,0,0,1,2.88-1.9,2.4,2.4,0,0,1,0-.66,2.72,2.72,0,0,1,2.89-2.53.7.7,0,0,1,.23.06,4.33,4.33,0,0,1,8.16,2.12h.12a2.28,2.28,0,0,1,2.1,2.3,2.83,2.83,0,0,1,1.11-.14,3.2,3.2,0,0,1,2.92,2.7,4.35,4.35,0,0,1-1,8.63,4.41,4.41,0,0,1-1.69-.49,3.6,3.6,0,0,1-3.61,2.24,3.45,3.45,0,0,1-1.79-.63,8.36,8.36,0,0,1-9.73-2.53,4.29,4.29,0,0,1-2.33.5,4.36,4.36,0,0,1-4.06-4.63A4.6,4.6,0,0,1,895.68,536.49Z" transform="translate(0)"/><path class="cls-12" d="M400.79,564s-4.58,25.44-9,38.17c0,0,3.9,11.23,21.95,3.81,0,0-7.56-9.53-7.07-43Z" transform="translate(0)"/><path class="cls-24" d="M442.91,530.58c-.77,20.85-20.71,42.92-36,41.89s-30.42-21.12-31.34-42c-3.23-73.49,29-143.95,44.25-142.92C429.88,388.25,446.89,423,442.91,530.58Z" transform="translate(0)"/><path class="cls-12" d="M284,575s-1.53,25.84-4.17,39c0,0,4.59,10.8,19.91,1.55,0,0-7.68-8.74-10.58-42.13Z" transform="translate(0)"/><path class="cls-25" d="M318.13,537.33c1.41,20.88-14.13,45-27.82,45.5s-29.17-17.94-32.07-38.65C248,471.19,269.61,397.56,283.3,397,292.3,396.65,310.9,429.57,318.13,537.33Z" transform="translate(0)"/><path class="cls-12" d="M332.48,585.87s-1.34,21.07-3.54,31.78c0,0,3.7,8.83,16.23,1.34,0,0-6.23-7.15-8.47-34.39Z" transform="translate(0)"/><path class="cls-26" d="M360.45,555.3c1.07,17-11.69,36.6-22.85,37s-23.71-14.73-26-31.62c-8.07-59.55,9.82-119.48,21-119.88C339.92,440.53,355,467.44,360.45,555.3Z" transform="translate(0)"/><path class="cls-12" d="M358.84,574.92s-2.6,20.45-5.41,30.76c0,0,3.07,8.83,15.74,2.3,0,0-5.63-7.35-6.15-34.05Z" transform="translate(0)"/><path class="cls-27" d="M388,546.82c0,16.67-13.64,35-24.54,34.67S341.22,565.66,340,549.06c-4.21-58.56,16.91-115.9,27.82-115.6C375,433.65,388,460.81,388,546.82Z" transform="translate(0)"/><rect class="cls-28" x="448.51" y="387.69" width="20.01" height="63.59"/><rect class="cls-29" x="444.63" y="378.9" width="27.76" height="9.68"/><rect class="cls-30" x="791" y="489.78" width="96" height="112.67"/><rect class="cls-31" x="794" y="492.78" width="90" height="106.67"/><rect class="cls-32" x="794" y="492.78" width="90" height="106.67"/><polygon class="cls-33" points="899 495.62 850 385.62 751.5 385.62 738 495.62 899 495.62"/><polygon class="cls-34" points="899 495.62 850 385.62 751.5 385.62 738 495.62 899 495.62"/><rect class="cls-35" x="794" y="501.79" width="74.19" height="100.67"/><rect class="cls-36" x="797" y="504.79" width="68.19" height="94.67"/><rect class="cls-37" x="822.1" y="501.79" width="3.87" height="100.67"/><rect class="cls-38" x="831.1" y="513.09" width="27.58" height="34.79"/><rect class="cls-38" x="831.1" y="555.31" width="27.58" height="33.31"/><rect class="cls-38" x="791" y="555.31" width="26.04" height="33.31"/><rect class="cls-38" x="795.04" y="513.09" width="23.46" height="33.03"/><rect class="cls-39" x="547.42" y="473.34" width="256.61" height="129.11"/><rect class="cls-40" x="547.42" y="490.17" width="256.61" height="112.28"/><rect class="cls-41" x="547.42" y="490.17" width="256.61" height="112.28"/><polygon class="cls-42" points="771.34 347.79 825.97 473.34 491.12 473.34 544.42 347.79 771.34 347.79"/><polygon class="cls-34" points="771.34 347.79 825.97 473.34 491.12 473.34 544.42 347.79 771.34 347.79"/><path class="cls-43" d="M623.35,512.22v87.23h75.94V512.22Zm70.94,82.23H628.35V517.22h65.94Z" transform="translate(0)"/><rect class="cls-44" x="640.31" y="526.26" width="42.12" height="71.19"/><rect class="cls-45" x="644.31" y="530.26" width="34.12" height="69.19"/><polygon class="cls-46" points="617.48 517.63 631.98 488.63 692.04 488.63 706.59 518.16 617.48 517.63"/><rect class="cls-47" x="718.83" y="521.26" width="25.65" height="43.16"/><rect class="cls-48" x="721.58" y="524.16" width="9.24" height="17.51"/><rect class="cls-48" x="732.96" y="524.16" width="9.24" height="17.51"/><rect class="cls-48" x="732.96" y="544.08" width="9.24" height="17.51"/><rect class="cls-48" x="721.58" y="544.08" width="9.24" height="17.51"/><rect class="cls-47" x="755.58" y="521.26" width="25.65" height="43.16"/><rect class="cls-48" x="758.33" y="524.16" width="9.24" height="17.51"/><rect class="cls-48" x="769.71" y="524.16" width="9.24" height="17.51"/><rect class="cls-48" x="769.71" y="544.08" width="9.24" height="17.51"/><rect class="cls-48" x="758.33" y="544.08" width="9.24" height="17.51"/><polygon class="cls-49" points="607.8 410.56 607.8 405.92 660.5 336.61 713.95 406.69 713.95 410.56 607.8 410.56"/><polygon class="cls-40" points="620.85 435.34 620.85 407.71 660.71 355.02 700.87 408.48 700.87 435.34 620.85 435.34"/><polygon class="cls-41" points="620.85 435.34 620.85 407.71 660.71 355.02 700.87 408.48 700.87 435.34 620.85 435.34"/><polygon class="cls-50" points="620.85 412.17 619.95 405.41 660.71 351.21 701.49 405.42 700.87 412.17 690.5 412.17 690.42 405.45 697.09 405.43 660.71 358.28 624.52 405.41 631.59 405.41 631.42 412.17 620.85 412.17"/><polyline class="cls-51" points="631.38 410.56 631.59 405.41 618.41 405.41 660.71 347.79 702.7 405.41 690.42 405.45 690.17 410.56 710.88 410.56 710.88 407.71 660.88 340.7 610.53 406.69 610.53 410.56"/><path class="cls-52" d="M660.88,379.17A12.88,12.88,0,0,0,648,392v26.83h25.75V392A12.87,12.87,0,0,0,660.88,379.17Z" transform="translate(0)"/><rect class="cls-53" x="649.91" y="392.29" width="9.8" height="11.64"/><rect class="cls-53" x="661.79" y="392.29" width="9.8" height="11.64"/><rect class="cls-53" x="661.79" y="405.71" width="9.8" height="10.47"/><rect class="cls-53" x="650.21" y="405.71" width="9.8" height="10.47"/><path class="cls-53" d="M650.21,390.83h21.38s-1.78-9-10.69-9.14C660.9,381.69,651.12,381.88,650.21,390.83Z" transform="translate(0)"/><polygon class="cls-49" points="410.7 479.89 410.7 471.15 511.28 340.58 613.32 472.6 613.32 479.89 410.7 479.89"/><polygon class="cls-40" points="426.93 601.56 426.93 474.53 511.65 375.27 597 475.97 597 601.56 426.93 601.56"/><polygon class="cls-54" points="426.93 604.56 426.93 474.53 511.65 375.27 597 475.97 597 604.56 426.93 604.56"/><polygon class="cls-50" points="435.6 482.92 433.88 470.19 511.68 368.09 589.53 470.2 588.34 482.92 568.54 482.92 568.4 470.26 581.14 470.22 511.68 381.41 442.6 470.19 456.11 470.19 455.77 482.92 435.6 482.92"/><polyline class="cls-51" points="455.7 479.89 456.11 470.19 430.95 470.19 511.68 361.64 591.84 470.19 568.4 470.26 567.91 479.89 607.46 479.89 607.46 474.53 512.01 348.29 415.9 472.6 415.9 479.89"/><path class="cls-55" d="M527.88,438.11c0-.11,0-.23,0-.35a15.89,15.89,0,1,0-31.77,0c0,.12,0,.24,0,.35H480.28v42.08h63.27V438.11Z" transform="translate(0)"/><path class="cls-56" d="M498.58,439.45s1-14.09,13.33-14.86c0,0,12.62,1.25,13.88,14.86Z" transform="translate(0)"/><rect class="cls-56" x="482.97" y="441.46" width="12.85" height="16.37"/><rect class="cls-56" x="497.98" y="441.76" width="12.85" height="16.37"/><rect class="cls-56" x="512.94" y="441.76" width="12.85" height="16.37"/><rect class="cls-56" x="528.13" y="441.76" width="12.85" height="16.37"/><rect class="cls-56" x="482.97" y="460.48" width="12.85" height="16.37"/><rect class="cls-56" x="497.99" y="460.78" width="12.85" height="16.37"/><rect class="cls-56" x="512.95" y="460.78" width="12.85" height="16.37"/><rect class="cls-56" x="528.14" y="460.78" width="12.85" height="16.37"/><rect class="cls-57" x="471.97" y="514.83" width="80.09" height="54.58"/><rect class="cls-56" x="475.26" y="518.16" width="17" height="18.29"/><rect class="cls-56" x="493.83" y="518.16" width="17" height="18.29"/><rect class="cls-56" x="512.94" y="518.16" width="17" height="18.29"/><rect class="cls-56" x="532.49" y="518.16" width="17" height="18.29"/><rect class="cls-56" x="475.56" y="538.89" width="15.85" height="26.88"/><rect class="cls-56" x="494.4" y="538.89" width="15.85" height="26.88"/><rect class="cls-56" x="513.52" y="538.89" width="15.85" height="26.88"/><rect class="cls-56" x="532.75" y="538.89" width="15.85" height="26.88"/><polygon class="cls-57" points="468.52 565.76 469.78 574.02 553.7 574.02 555.35 565.76 468.52 565.76"/><path class="cls-58" d="M624.78,646s-2-16.23-13.29-13.71c0,0-1.85-7.83,5.78-6.13,0,0,11.5-5.19-.64-8.8,0,0-6.52.87-2.91-4.67,0,0-7.4-11.45-11.89.79,0,0-9,5-6.07-4.9,0,0-.3-17.67-8.1-2.11,0,0-8.61,3.49-3.93-5.8,0,0,4.1-11.46-6-10.78,0,0-9.16,1.93-3.78-10.36,0,0,2.55-8.13-8-6.55,0,0-8,6.28-8.77-5.6,0,0,.88-6.69-9.68.64,0,0-4.06-1-3.23-8.62,0,0-4-7.25-8.57,4.11,0,0-3.08,6.83-6.63,0,0,0-6.19-6.67-6.2,6.6,0,0-1.32,6.72-5.69.82,0,0-5.28.35-2.38,10.77,0,0,1.68,7.52-2.61,6.75,0,0-5.62.55-2.4-6.74,0,0-.55-10.92-10-4.46,0,0-19.5,17.74-22,20,0,0-4.49-11.72,8.25-24.76,0,0,5.23-9-2.16-13.82a4.54,4.54,0,0,0-4.8,2.26s-5.38,1.42-2.9-3.69c0,0-1.7-9.61-10.38.69,0,0-8.38-11.81-16.29,7.45a17.87,17.87,0,0,0-8.49-.15s-6.8,1.52-4.58,10.91c0,0-9.17,13.52-7.81,2.12,0,0-5.13-8-6.49,3.43,0,0-.12,8.85-7.47-.74,0,0,3.67-5.9,1.11-9.79,0,0-.59-3.67-7.54-1.8,0,0-.77,1.65-4.71-4.45,0,0-4.94-2.5-9.79,4.36,0,0-4.58,2.78-7.14-3.77,0,0-4.94-5.14-9.48,1,0,0-6.38,10.32-8.21,1.43,0,0-4.61-5.52-8.27,3.2,0,0-1.89,11.44-5.64,5.5,0,0-9-2.58-11.64,8.38,0,0,1.41,15.81-5.31,7.78,0,0-4.8-.39-5,7.75,0,0-1.78,10.55-6.72,2.57,0,0-2.28-5-5.38,1.59,0,0-2.91,6.74-4.92.33,0,0-4.68,1.38-2.28-5,0,0,6.16-5.71,5-12.18,0,0,0-2.29-7.25-5.17,0,0-2.93-4.05-.77-11.61,0,0-4.25-.25-3.86-2.4,0,0,3.11-14.34-6.71-5.2,0,0-7.21,1.64-4.89-5.38.07-.22.15-.44.24-.68,3-7.8-6.6-8.92-12.09-6.44,0,0-.74-16.38-10.38-9.91,0,0-4,3.45-5.07-1.78,0,0-5.93-4.2-8.15,2.31,0,0-2.28,8.28-3.82,1,0,0-6.61-3.63-7,3.12,0,0,1.38,10.16-9.16,11l-4.32,4.18s-8.89-6.13-10,3.31c0,0-2.05,6.33-4.69-1.45,0,0-1.36-7.15-5.87-.49,0,0-3.75,7.32-6.58-.62,0,0-4.89-4.45-6.15,3.23,0,0-.8,11.72-6,5.53,0,0-6.82-4.2-6.05,4.7,0,0,1,11.72-5.07,6.11,0,0-7.19-1.81-6,10.48L170,598.17l-8.94,1.12L148.87,589l7.92-8.48,10.4-16.42-4.08-5.39s-.1-6.88-3.4-3.3c0,0-4.82,1.91-5.42-4.41,0,0-1.8-.59-3.6,4.3,0,0-6.44-6.46-6.85-2,0,0-3.34,10.83-3.85,3.26,0,0-3.25-3.67-5.73,4.1,0,0-1.48,4.34-4.8-.39,0,0-1.06-2.58-4.38,3.3,0,0-4.18,3.46-4.59-2.7,0,0-3-6-6.43,1.66l-6.27-1.17-6.1-6.66-2-.4s-2.94-4.4-5.93,3.75a9.38,9.38,0,0,1-3.58-.64s-2.67-3-6.44,6.79c0,0-1.89,3.48-2.64.18,0,0-3.19-2.8-4.74,5.79a10.09,10.09,0,0,1-8.78,3.41,18.73,18.73,0,0,0-2.4,6.53s-11.09-2.09-5.8,5.69c0,0,2.39,9.38-3.39,4.82,0,0-7.92-2.13-3,5.85,0,0,5,14.69-3.83,11.57,0,0-3.16-2.44-4.11,4.51,0,0-4.44,2.42-5.52-3.17,0,0-.74-8.43-6.79-1.13,0,0-2.68,2.12-4.58-2.52,0,0-3.51-2.25-3.85,5.91,0,0-.15,3-5.19-.89,0,0-3.09-1.39-3.75,7.31,0,0,.67,4.73-6.34,3,0,0-3.79,1.4-3,8.42,0,0,0,5.3,8.05,6.88l45.28,11.44,102,10.74,51.68,1.06,98.38-5,116-4.22,90.89,2.81,74.87-11.86Z" transform="translate(0)"/><path class="cls-12" d="M183.49,582.78s-5.61,31.17-11,46.77c0,0,4.78,13.77,26.91,4.68,0,0-9.27-11.69-8.66-52.65Z" transform="translate(0)"/><path class="cls-59" d="M235.13,541.84c-.94,25.56-25.39,52.61-44.11,51.35s-37.28-25.89-38.4-51.44c-4-90.08,35.51-176.45,54.23-175.19C219.15,367.39,240,410,235.13,541.84Z" transform="translate(0)"/><path class="cls-12" d="M40.34,596.28s-1.87,31.68-5.11,47.8c0,0,5.63,13.25,24.41,1.9,0,0-9.41-10.71-13-51.64Z" transform="translate(0)"/><path class="cls-60" d="M82.18,550.11c1.72,25.6-17.32,55.11-34.1,55.78s-35.76-22-39.31-47.37C-3.78,469,22.71,378.8,39.49,378.13,50.51,377.68,73.32,418,82.18,550.11Z" transform="translate(0)"/><path class="cls-12" d="M99.77,609.62s-1.64,25.82-4.34,39c0,0,4.54,10.82,19.89,1.64,0,0-7.63-8.77-10.38-42.15Z" transform="translate(0)"/><path class="cls-61" d="M134.05,572.14c1.31,20.88-14.32,44.86-28,45.35S77,599.42,74.18,578.72c-9.89-73,12-146.45,25.71-146.93C108.89,431.47,127.33,464.45,134.05,572.14Z" transform="translate(0)"/><path class="cls-12" d="M132.08,596.19s-3.19,25.07-6.63,37.71c0,0,3.77,10.83,19.3,2.82,0,0-6.91-9-7.54-41.73Z" transform="translate(0)"/><path class="cls-62" d="M167.8,561.75c0,20.43-16.72,42.86-30.09,42.49s-27.23-19.39-28.7-39.75c-5.16-71.77,20.73-142.06,34.09-141.69C151.89,423,167.85,456.33,167.8,561.75Z" transform="translate(0)"/><path class="cls-17" d="M188.32,523.37s-15,17.19-52.53,17.2l-3.64,10.19s7.9-5.36,16.73-6.47,34.91-10.55,41.52-20.53Z" transform="translate(0)"/><path class="cls-17" d="M183.47,519.25s-.3,8.24-6.21,13.51-.38.14-.22.17,3.5-1.17,3.5-1.17S185.27,522.67,183.47,519.25Z" transform="translate(0)"/><path class="cls-18" d="M132.46,485.12s7.5,2.48-8.93,61.85-13.91,103.15-13.91,103.15l40.16,2s-16.92-38.52-12.85-75.63,35.95-71.43,43.45-97.6l-10.65-1.62s-16.61,39-26.63,48.11c0,0,6.68-33.58,3.5-49S132.46,485.12,132.46,485.12Z" transform="translate(0)"/><g class="cls-19"><path class="cls-17" d="M136.25,490c1.56,6.85-4.8,33.89-7.75,46S117.81,582,117.81,582s7.75-28.86,22.31-40.87,34.34-52.57,34.34-52.57-4-.52-9.3-1.06c-5.68,12.25-15.34,31.77-22.06,37.88,0,0,4.42-22.2,4.36-38.77C140.79,486.63,135.69,487.49,136.25,490Z" transform="translate(0)"/></g><path class="cls-18" d="M64.88,533.13s9.39,27.55,53.7,45.79l-.67,13.84S111.2,582.57,101.28,577,65.14,547.51,62.2,532.54Z" transform="translate(0)"/><path class="cls-18" d="M88.41,518.66s-8.73,23.7,1.87,45.44,1,.76.43.73-8.54-7.36-8.54-7.36S79.29,526.31,88.41,518.66Z" transform="translate(0)"/><path class="cls-20" d="M143.13,547.93a80.14,80.14,0,0,0-14.76,25c-5.26,14.72-7.35,45.7-5.46,59.62S125.35,623,131,629s5.71,16.4,10.81,16.08C141.78,645.06,123.2,603.18,143.13,547.93Z" transform="translate(0)"/><path class="cls-21" d="M112.79,520.11a8.27,8.27,0,0,0,.49-2.37,7.51,7.51,0,0,0-7.12-7.86,7.72,7.72,0,0,0-2,.19,14.53,14.53,0,0,0-8.74-7.4,10.32,10.32,0,0,0,.36-2.2A9,9,0,0,0,87.16,491c-.25,0-.48,0-.73,0a14.47,14.47,0,0,0-27.89,3.86c-.12,0-.24,0-.39,0a7.48,7.48,0,0,0-7.79,6.74,11,11,0,0,0-3.66-.83,10.64,10.64,0,0,0-10.76,7.76,14.47,14.47,0,0,0-.12,28.92,14.07,14.07,0,0,0,5.84-.92A12,12,0,0,0,58.9,544a28.14,28.14,0,0,0,12.24,3.49,27.81,27.81,0,0,0,21-8,14.48,14.48,0,0,0,20.68-19.36Z" transform="translate(0)"/><path class="cls-22" d="M111.29,519.89a5.65,5.65,0,0,0,.47-2.24,7.27,7.27,0,0,0-6.87-7.64,7,7,0,0,0-1.94.22,13.93,13.93,0,0,0-8.46-7.16,9.34,9.34,0,0,0,.39-2.12,8.81,8.81,0,0,0-8.31-9.17,5.68,5.68,0,0,0-.72,0,14,14,0,0,0-27,3.73c-.12,0-.2-.07-.35-.08A7.28,7.28,0,0,0,51,502a9,9,0,0,0-3.51-.83,10.22,10.22,0,0,0-10.35,7.47,14,14,0,1,0,5.53,27.06A11.61,11.61,0,0,0,59.26,543a26.91,26.91,0,0,0,32.09-4.36,14.22,14.22,0,0,0,7.29,2.49,14,14,0,0,0,12.65-21.24Z" transform="translate(0)"/><path class="cls-23" d="M108.22,517.87a6.14,6.14,0,0,0,.45-2,6.59,6.59,0,0,0-6.28-6.92,6.16,6.16,0,0,0-1.76.18A12.58,12.58,0,0,0,93,502.57a7,7,0,0,0,.34-1.93,8,8,0,0,0-7.58-8.39c-.24,0-.39,0-.62,0a12.72,12.72,0,0,0-24.52,3.42l-.23,0a6.59,6.59,0,0,0-7,6,8.89,8.89,0,0,0-3.25-.74,9.32,9.32,0,0,0-9.42,6.79,12.73,12.73,0,0,0-.09,25.43,12.87,12.87,0,0,0,5.13-.83,10.65,10.65,0,0,0,9.75,7.87,10,10,0,0,0,5.4-1.27A23.85,23.85,0,0,0,71.58,542a24.56,24.56,0,0,0,18.52-7.05,12.71,12.71,0,0,0,18.12-17Z" transform="translate(0)"/><path class="cls-21" d="M255.87,424.55a18.18,18.18,0,0,0,1.28-5.9,18.78,18.78,0,0,0-23-19.24,36.48,36.48,0,0,0-21.91-18.63,22.14,22.14,0,0,0,1-5.47,22.75,22.75,0,0,0-21.65-23.86,12.79,12.79,0,0,0-1.86,0,36.32,36.32,0,0,0-70,9.68c-.32,0-.6-.09-1-.11a18.83,18.83,0,0,0-19.64,17,25.94,25.94,0,0,0-9.15-2.15,26.75,26.75,0,0,0-27,19.49,36.35,36.35,0,1,0,14.45,70.27,30.15,30.15,0,0,0,43.26,18.94A70,70,0,0,0,204,473.2a36.34,36.34,0,0,0,51.91-48.65Z" transform="translate(0)"/><path class="cls-22" d="M252.15,424.08a18,18,0,0,0,1.23-5.69,18.15,18.15,0,0,0-22.22-18.62,35,35,0,0,0-21.22-17.95,20.56,20.56,0,0,0,1-5.34A22,22,0,0,0,190,353.43a12.89,12.89,0,0,0-1.76,0,35.08,35.08,0,0,0-67.64,9.36l-1-.08a18.15,18.15,0,0,0-19,16.38A26.27,26.27,0,0,0,91.81,377a25.86,25.86,0,0,0-26.1,18.86A35.1,35.1,0,0,0,65.43,466a34.62,34.62,0,0,0,14.2-2.24,29.27,29.27,0,0,0,41.86,18.29,67.67,67.67,0,0,0,80.52-11,35.1,35.1,0,0,0,50.14-47Z" transform="translate(0)"/><path class="cls-23" d="M244.46,419a15.81,15.81,0,0,0,1.12-5.17,16.6,16.6,0,0,0-15.74-17.36,15.72,15.72,0,0,0-4.46.41,32.08,32.08,0,0,0-19.29-16.34,21,21,0,0,0,.86-4.82,20.05,20.05,0,0,0-19.08-21c-.51,0-1.08,0-1.58,0a32,32,0,0,0-61.59,8.56,4.47,4.47,0,0,0-.82-.08,16.54,16.54,0,0,0-17.27,14.91,23.4,23.4,0,0,0-31.8,15.21,32,32,0,0,0-.26,63.87,32.32,32.32,0,0,0,13-2.05,26.58,26.58,0,0,0,24.37,19.69,26,26,0,0,0,13.62-3.06,61.69,61.69,0,0,0,73.39-10,31.55,31.55,0,0,0,16.71,5.75A32,32,0,0,0,244.46,419Z" transform="translate(0)"/><path class="cls-22" d="M218.9,518.78a4.49,4.49,0,0,0,.29-1.43,4.56,4.56,0,0,0-4.31-4.77,8.25,8.25,0,0,0-1.24.08,8.81,8.81,0,0,0-5.3-4.49,5.81,5.81,0,0,0,.25-1.34,5.56,5.56,0,0,0-5.29-5.77,2,2,0,0,0-.41,0,8.79,8.79,0,0,0-16.95,2.33l-.17,0a4.62,4.62,0,0,0-4.87,4.11,6.41,6.41,0,0,0-2.19-.5,6.47,6.47,0,0,0-6.56,4.72,8.79,8.79,0,0,0-.05,17.57,9,9,0,0,0,3.55-.53,7.33,7.33,0,0,0,6.74,5.4,7.49,7.49,0,0,0,3.75-.81,16.6,16.6,0,0,0,7.42,2.11,17.1,17.1,0,0,0,12.79-4.87,8.81,8.81,0,0,0,13.83-6.82A8.47,8.47,0,0,0,218.9,518.78Z" transform="translate(0)"/><path class="cls-21" d="M218,518.67a3.89,3.89,0,0,0,.28-1.37,4.39,4.39,0,0,0-4.17-4.64,3.64,3.64,0,0,0-1.18.14,8.51,8.51,0,0,0-5.14-4.38,5.45,5.45,0,0,0,.2-1.28,5.32,5.32,0,0,0-5-5.61,4.37,4.37,0,0,0-.44,0,8.52,8.52,0,0,0-16.42,2.28h-.19a4.41,4.41,0,0,0-4.62,4,5.27,5.27,0,0,0-2.13-.53,6.27,6.27,0,0,0-6.35,4.54,8.52,8.52,0,0,0-.06,17,8.66,8.66,0,0,0,3.45-.55,7.08,7.08,0,0,0,6.51,5.23,6.63,6.63,0,0,0,3.59-.8,16.85,16.85,0,0,0,7.22,2.06A16.37,16.37,0,0,0,205.88,530a8.13,8.13,0,0,0,4.45,1.56A8.51,8.51,0,0,0,218,518.67Z" transform="translate(0)"/><path class="cls-23" d="M216.19,517.46a9.34,9.34,0,0,0,.25-1.28A4.06,4.06,0,0,0,212.6,512a3.6,3.6,0,0,0-1.06.11,7.91,7.91,0,0,0-4.7-4,4.34,4.34,0,0,0,.21-1.17,4.83,4.83,0,0,0-4.57-5.08,1.43,1.43,0,0,0-.43,0,7.73,7.73,0,0,0-14.92,2l-.2,0a4.1,4.1,0,0,0-4.21,3.64,5.08,5.08,0,0,0-1.94-.48,5.69,5.69,0,0,0-5.74,4.16,7.76,7.76,0,0,0,0,15.5,8.26,8.26,0,0,0,3.11-.5A6.43,6.43,0,0,0,184,531a6.24,6.24,0,0,0,3.31-.73,15,15,0,0,0,17.78-2.42,7.55,7.55,0,0,0,4,1.38,7.78,7.78,0,0,0,8.17-7.34A8.15,8.15,0,0,0,216.19,517.46Z" transform="translate(0)"/><path class="cls-17" d="M301.16,585.06s-6.78,7.76-23.73,7.77l-1.65,4.6a19.84,19.84,0,0,1,7.56-2.92c4-.49,15.77-4.77,18.76-9.27Z" transform="translate(0)"/><path class="cls-17" d="M299,583.2a9.46,9.46,0,0,1-2.81,6.1c-2.68,2.4-.17.06-.1.08s1.58-.53,1.58-.53S299.78,584.74,299,583.2Z" transform="translate(0)"/><path class="cls-18" d="M275.92,567.78s3.39,1.12-4,27.94-6.28,46.6-6.28,46.6l18.14.88s-7.64-17.4-5.81-34.17,16.24-32.27,19.63-44.09l-4.81-.73s-7.5,17.61-12,21.73c0,0,3-15.16,1.58-22.12S275.92,567.78,275.92,567.78Z" transform="translate(0)"/><g class="cls-19"><path class="cls-17" d="M277.64,570c.7,3.09-2.17,15.31-3.5,20.79s-4.83,20.73-4.83,20.73,3.5-13,10.08-18.46,15.51-23.75,15.51-23.75-1.79-.23-4.21-.48c-2.56,5.54-6.92,14.35-10,17.11,0,0,2-10,2-17.51C279.69,568.46,277.39,568.85,277.64,570Z" transform="translate(0)"/></g><path class="cls-18" d="M245.4,589.47s4.24,12.44,24.25,20.68l-.3,6.26a25.14,25.14,0,0,0-7.51-7.14c-4.46-2.51-16.32-13.31-17.65-20.07Z" transform="translate(0)"/><path class="cls-18" d="M256,582.93s-3.95,10.71.84,20.53.44.34.2.33-3.86-3.33-3.86-3.33S251.91,586.39,256,582.93Z" transform="translate(0)"/><path class="cls-20" d="M280.74,596.15a36.14,36.14,0,0,0-6.66,11.29c-2.38,6.65-3.32,20.65-2.47,26.93s1.11-4.29,3.64-1.6,2.58,7.41,4.88,7.26C280.13,640,271.74,621.11,280.74,596.15Z" transform="translate(0)"/><path class="cls-21" d="M267,583.59a3.91,3.91,0,0,0,.22-1.08A3.4,3.4,0,0,0,264,579a3.71,3.71,0,0,0-.9.09,6.61,6.61,0,0,0-3.95-3.35,4.45,4.45,0,0,0,.16-1,4.08,4.08,0,0,0-3.89-4.28h-.33a6.53,6.53,0,0,0-12.6,1.74l-.18,0a3.37,3.37,0,0,0-3.51,3,5.09,5.09,0,0,0-1.66-.37,4.79,4.79,0,0,0-4.85,3.5,6.54,6.54,0,0,0-.06,13.07,6.4,6.4,0,0,0,2.64-.42,5.43,5.43,0,0,0,7.78,3.41,12.88,12.88,0,0,0,5.54,1.58,12.58,12.58,0,0,0,9.47-3.63,6.54,6.54,0,0,0,9.34-8.74Z" transform="translate(0)"/><path class="cls-22" d="M266.36,583.49a2.7,2.7,0,0,0,.22-1,3.3,3.3,0,0,0-3.11-3.45,3.14,3.14,0,0,0-.87.1,6.32,6.32,0,0,0-3.83-3.23,4.4,4.4,0,0,0,.18-1,4,4,0,0,0-3.76-4.14h-.32a6.33,6.33,0,0,0-12.19,1.69c-.05,0-.09,0-.16,0a3.3,3.3,0,0,0-3.42,3,4.12,4.12,0,0,0-1.58-.37,4.63,4.63,0,0,0-4.68,3.37,6.32,6.32,0,0,0-.05,12.63,6.41,6.41,0,0,0,2.55-.4,5.22,5.22,0,0,0,4.81,3.88,5.13,5.13,0,0,0,2.71-.6,12,12,0,0,0,5.34,1.54,12.19,12.19,0,0,0,9.15-3.5,6.51,6.51,0,0,0,3.3,1.12,6.32,6.32,0,0,0,6.62-6A6.2,6.2,0,0,0,266.36,583.49Z" transform="translate(0)"/><path class="cls-23" d="M265,582.58a2.79,2.79,0,0,0,.21-.93,3,3,0,0,0-2.84-3.13,2.62,2.62,0,0,0-.79.08,5.71,5.71,0,0,0-3.47-2.94,3.17,3.17,0,0,0,.15-.87,3.61,3.61,0,0,0-3.42-3.79,2.72,2.72,0,0,1-.28,0,5.75,5.75,0,0,0-11.08,1.54h-.1a3,3,0,0,0-3.16,2.68,4.1,4.1,0,0,0-1.46-.33,4.21,4.21,0,0,0-4.26,3.07,5.75,5.75,0,1,0,2.28,11.11,4.8,4.8,0,0,0,4.4,3.55,4.47,4.47,0,0,0,2.44-.57,10.72,10.72,0,0,0,4.83,1.41,11.13,11.13,0,0,0,8.37-3.18,5.76,5.76,0,0,0,9-4.44A5.55,5.55,0,0,0,265,582.58Z" transform="translate(0)"/><path class="cls-21" d="M331.67,540.42a8.11,8.11,0,0,0,.58-2.67,8.49,8.49,0,0,0-10.4-8.69,16.48,16.48,0,0,0-9.9-8.42,9.82,9.82,0,0,0,.44-2.46,10.27,10.27,0,0,0-9.77-10.78,4.82,4.82,0,0,0-.85,0,16.41,16.41,0,0,0-31.63,4.37l-.43,0a8.51,8.51,0,0,0-8.87,7.68,11.79,11.79,0,0,0-4.13-1,12.09,12.09,0,0,0-12.21,8.8,16.42,16.42,0,0,0-.11,32.81A16.25,16.25,0,0,0,251,559a13.61,13.61,0,0,0,19.54,8.56,31.62,31.62,0,0,0,37.65-5.14,16.42,16.42,0,0,0,23.45-22Z" transform="translate(0)"/><path class="cls-22" d="M330,540.2a8.08,8.08,0,0,0,.56-2.57,8.23,8.23,0,0,0-7.82-8.61,8.13,8.13,0,0,0-2.22.2,15.8,15.8,0,0,0-9.58-8.1,9.75,9.75,0,0,0,.43-2.41,10,10,0,0,0-9.45-10.42,7.12,7.12,0,0,0-.8,0,15.84,15.84,0,0,0-30.55,4.23l-.43,0a8.2,8.2,0,0,0-8.56,7.4,11.9,11.9,0,0,0-4-.95,11.68,11.68,0,0,0-11.79,8.52,15.86,15.86,0,0,0-.12,31.68,15.66,15.66,0,0,0,6.41-1A13.22,13.22,0,0,0,271,566.4a30.56,30.56,0,0,0,36.38-5,15.72,15.72,0,0,0,8.32,2.87A15.87,15.87,0,0,0,330,540.2Z" transform="translate(0)"/><path class="cls-23" d="M326.52,537.9a7.19,7.19,0,0,0,.51-2.33,7.5,7.5,0,0,0-7.11-7.84,6.8,6.8,0,0,0-2,.18,14.48,14.48,0,0,0-8.71-7.38,8.9,8.9,0,0,0,.38-2.18,9,9,0,0,0-8.61-9.48h-.72a14.43,14.43,0,0,0-27.82,3.87,2.31,2.31,0,0,0-.37,0,7.46,7.46,0,0,0-7.8,6.73,10.57,10.57,0,0,0-14.37,6.87,14.45,14.45,0,0,0-.11,28.86,14.92,14.92,0,0,0,5.85-.93,12,12,0,0,0,11,8.89,11.69,11.69,0,0,0,6.15-1.38,27.88,27.88,0,0,0,33.15-4.52,14.26,14.26,0,0,0,7.55,2.6,14.44,14.44,0,0,0,13-21.92Z" transform="translate(0)"/><path class="cls-22" d="M315,583a2.08,2.08,0,0,0-1.81-2.8,3.32,3.32,0,0,0-.56,0,4,4,0,0,0-2.4-2,2.14,2.14,0,0,0,.11-.6,2.51,2.51,0,0,0-2.39-2.61h-.18a4,4,0,0,0-7.66,1H300a2.09,2.09,0,0,0-2.2,1.86,2.68,2.68,0,0,0-1-.22,2.92,2.92,0,0,0-3,2.12,4,4,0,0,0,0,7.94,3.92,3.92,0,0,0,1.6-.24,3.31,3.31,0,0,0,3.05,2.44,3.35,3.35,0,0,0,1.69-.37,7.49,7.49,0,0,0,3.36,1,7.69,7.69,0,0,0,5.77-2.2,4,4,0,0,0,6.25-3.08A3.73,3.73,0,0,0,315,583Z" transform="translate(0)"/><path class="cls-21" d="M314.57,582.94a1.85,1.85,0,0,0,.12-.62,2,2,0,0,0-1.88-2.1,1.57,1.57,0,0,0-.53.06,3.89,3.89,0,0,0-2.33-2,2,2,0,0,0,.09-.57,2.41,2.41,0,0,0-2.27-2.54h-.19a3.85,3.85,0,0,0-7.42,1h-.09A2,2,0,0,0,298,578a2.28,2.28,0,0,0-1-.24,2.82,2.82,0,0,0-2.86,2.05,3.85,3.85,0,0,0,0,7.7,4.09,4.09,0,0,0,1.56-.25,3.21,3.21,0,0,0,2.94,2.36,3,3,0,0,0,1.62-.36,7.59,7.59,0,0,0,3.26.93,7.4,7.4,0,0,0,5.58-2.15,3.58,3.58,0,0,0,2,.7,3.83,3.83,0,0,0,4-3.65A3.78,3.78,0,0,0,314.57,582.94Z" transform="translate(0)"/><path class="cls-23" d="M313.75,582.39a3.71,3.71,0,0,0,.11-.58,1.83,1.83,0,0,0-1.73-1.9,1.48,1.48,0,0,0-.48.05,3.59,3.59,0,0,0-2.13-1.8,1.78,1.78,0,0,0,.1-.53,2.18,2.18,0,0,0-2.07-2.29.4.4,0,0,0-.19,0,3.49,3.49,0,0,0-6.74.91h-.09a1.84,1.84,0,0,0-1.9,1.64,2.37,2.37,0,0,0-.88-.22,2.58,2.58,0,0,0-2.59,1.88,3.5,3.5,0,0,0,0,7,3.7,3.7,0,0,0,1.41-.23,2.88,2.88,0,0,0,2.67,2.14,2.77,2.77,0,0,0,1.49-.33,6.91,6.91,0,0,0,3,.85,6.83,6.83,0,0,0,5.08-1.94,3.52,3.52,0,0,0,5.51-2.69A3.74,3.74,0,0,0,313.75,582.39Z" transform="translate(0)"/><path class="cls-63" d="M1000,599.45S114.17,562.56,70.89,676.12H1000Z" transform="translate(0)"/><path class="cls-64" d="M999.83,625.16s-88-28.37-121.15-29.73c-24.67-1-71.91-1.54-71.91-1.54S891.39,623.3,927,640.54s72.85,31.68,72.85,31.68Z" transform="translate(0)"/><path class="cls-65" d="M522.64,676.12s74.15-34.34,98.51-64.34c0,0,18.33-19.13,24.36-19.13h37.41s28.92,9.8,49.1,25.13c0,0,48.38,36.67,106.28,57.67Z" transform="translate(0)"/><path class="cls-66" d="M561,676.12s33-15.93,65.58-60.2c0,0,13.84-23.27,17.78-23.27h34.11a56.77,56.77,0,0,1,30.81,20.76s29.4,37.56,75.48,62Z" transform="translate(0)"/><path class="cls-67" d="M1.77,628.9s136.51-51.78,520.87,47.22H0Z" transform="translate(0)"/></svg>